<?xml version="1.0" encoding="UTF-8"?>
<svg version="1.1" xmlns="http://www.w3.org/2000/svg" width="1024" height="1024">
<path d="M0 0 C28.05 0 56.1 0 85 0 C85.06620313 46.81240321 85.12156993 93.62476208 85.15319599 140.43719875 C85.15694787 145.97058375 85.16083086 151.50396866 85.16479492 157.03735352 C85.16558185 158.13889708 85.16636878 159.24044065 85.16717956 160.37536433 C85.18021435 178.184291 85.20385753 195.99318846 85.23145839 213.80209783 C85.2595663 232.09143846 85.27618763 250.38076385 85.28226548 268.67012519 C85.28637077 279.94508621 85.2993117 291.21996466 85.3237494 302.49490025 C85.33967314 310.23870809 85.34438541 317.98247358 85.34050413 325.72629658 C85.33859287 330.1863188 85.34141056 334.64619724 85.35761642 339.10619354 C85.43644433 361.96479753 84.80875588 383.26618804 77 405 C76.56945312 406.23105469 76.13890625 407.46210937 75.6953125 408.73046875 C69.84573342 424.41196748 61.19126877 437.63975077 50 450 C48.70635265 451.49829213 47.41438996 452.9980425 46.125 454.5 C41.1827272 460.0848851 36.04726064 464.66367164 30 469 C29.07316406 469.68191406 28.14632812 470.36382813 27.19140625 471.06640625 C-7.74962321 496.14891804 -49.70210366 503.75574607 -92 498 C-99.4358928 496.72904324 -106.71454486 494.93809737 -114 493 C-115.24265625 492.69578125 -116.4853125 492.3915625 -117.765625 492.078125 C-123.13084054 490.72994263 -123.13084054 490.72994263 -125 490 C-125.33 489.34 -125.66 488.68 -126 488 C-127.19625 487.62875 -128.3925 487.2575 -129.625 486.875 C-161.03521399 476.95598506 -186.13455737 449.1724966 -201.15966797 420.92211914 C-206.45481974 410.48771484 -210.23532376 399.34513538 -213 388 C-213.33 387.34 -213.66 386.68 -214 386 C-215.03409157 379.36138744 -215.12835863 372.70317304 -215 366 C-215.66 365.67 -216.32 365.34 -217 365 C-216.85941524 362.54126232 -216.71277001 360.08314825 -216.5625 357.625 C-216.52318359 356.92632813 -216.48386719 356.22765625 -216.44335938 355.5078125 C-216.11328125 350.2265625 -216.11328125 350.2265625 -215 348 C-188.27 348 -161.54 348 -134 348 C-133.67 347.34 -133.34 346.68 -133 346 C-131.9823597 351.01608525 -131.88143566 355.78608306 -131.9375 360.875 C-131.94201172 361.65875 -131.94652344 362.4425 -131.95117188 363.25 C-131.96285907 365.16670014 -131.98079092 367.08336048 -132 369 C-131.34 369.33 -130.68 369.66 -130 370 C-129.7511089 371.93047466 -129.50869376 373.86214917 -129.30908203 375.79833984 C-127.44826502 389.05335388 -118.63053167 401.73802772 -108.609375 410.15234375 C-92.27577391 421.7179026 -73.02060197 424.87501841 -53.4375 422.25 C-37.18842338 419.46112392 -22.61493062 411.84562041 -12.69921875 398.54296875 C2.41095853 375.92980689 -0.84158919 347.97358691 -0.79939139 321.98260045 C-0.79129713 317.65157824 -0.7776313 313.3205729 -0.76467896 308.98956299 C-0.74304257 301.50554821 -0.72485199 294.02153162 -0.70907402 286.53750229 C-0.68625728 275.71716082 -0.65813159 264.89683813 -0.62875474 254.07651271 C-0.58122249 236.51667437 -0.53791991 218.95682828 -0.49731445 201.39697266 C-0.45788606 184.35009155 -0.41644253 167.30321728 -0.37231445 150.25634766 C-0.36822804 148.67734654 -0.36822804 148.67734654 -0.36405908 147.06644641 C-0.3503784 141.78495652 -0.33665836 136.50346673 -0.32291877 131.221977 C-0.20918 87.48133149 -0.10310723 43.74067212 0 0 Z " fill="#282929" transform="translate(430,248)"/>
<path d="M0 0 C1.13805588 -0.00262848 1.13805588 -0.00262848 2.29910278 -0.00531006 C4.78739768 -0.00968275 7.27562049 -0.00680651 9.76391602 -0.00341797 C11.50594598 -0.00409239 13.24797585 -0.00506358 14.99000549 -0.00631714 C18.63380839 -0.00778797 22.27758669 -0.0056596 25.92138672 -0.00097656 C30.57594228 0.00471609 35.23044011 0.00144074 39.88499355 -0.00454903 C43.48049855 -0.00817487 47.07599002 -0.00700669 50.67149544 -0.00442123 C52.38698394 -0.00375734 54.1024737 -0.00456147 55.81796074 -0.00690079 C58.22242323 -0.00946017 60.62679426 -0.00554059 63.03125 0 C64.07967323 -0.00303635 64.07967323 -0.00303635 65.14927673 -0.00613403 C69.87954875 0.01390585 74.40612457 0.4718761 79.08032227 1.12939453 C74.58222746 10.97471429 66.17339777 19.50631591 59.3125 27.77197266 C54.91599702 33.07979392 50.67338146 38.4786398 46.49829102 43.96142578 C39.65845219 52.92283012 32.6151327 61.72624854 25.56347656 70.52124023 C22.19335653 74.72803464 18.84575083 78.95165144 15.51782227 83.19189453 C15.06576416 83.76770264 14.61370605 84.34351074 14.14794922 84.93676758 C11.90675656 87.79389725 9.67045471 90.65473552 7.43969727 93.52001953 C1.80894589 100.73829553 -3.95447208 107.8313192 -9.7956543 114.88037109 C-14.1110407 120.10475825 -18.25972203 125.42639861 -22.36108398 130.82080078 C-25.30041885 134.6555776 -28.36075747 138.38982795 -31.41967773 142.12939453 C-36.20437963 147.98246423 -40.86974894 153.907279 -45.45874023 159.91455078 C-52.24486027 168.79775142 -59.20441412 177.512793 -66.39233398 186.07470703 C-71.51796327 192.26982619 -76.42592659 198.63962303 -81.36352539 204.98486328 C-86.71345933 211.85640414 -92.0542038 218.68337881 -97.91967773 225.12939453 C-96.37765257 229.99554581 -93.56261604 233.33177905 -90.35717773 237.19189453 C-89.26196387 238.53445169 -88.16822731 239.87821525 -87.07592773 241.22314453 C-86.53709961 241.88572266 -85.99827148 242.54830078 -85.44311523 243.23095703 C-83.35084789 245.83824403 -81.34895754 248.50732175 -79.35717773 251.19189453 C-76.13001473 255.5374967 -72.83509252 259.81835409 -69.48217773 264.06689453 C-62.25678671 273.22698731 -55.14959541 282.46842307 -48.16967773 291.81689453 C-43.88266782 297.55825286 -39.52154482 303.23545206 -35.10717773 308.87939453 C-30.13355372 315.23955042 -25.24822037 321.65844798 -20.41967773 328.12939453 C-13.37758341 337.56187451 -6.1745381 346.86008568 1.08032227 356.12939453 C8.31856293 365.38543642 15.51518587 374.6628987 22.53735352 384.08422852 C28.07372918 391.4939037 33.77848895 398.77132436 39.4699707 406.06201172 C43.36634821 411.06421378 47.21966244 416.09961642 51.08032227 421.12939453 C52.68437318 423.21281699 54.28854244 425.29614834 55.89282227 427.37939453 C64.48056209 438.54379669 73.05013477 449.71916698 81.46801758 461.01245117 C86.05901001 467.14921951 90.77812799 473.1844116 95.53710938 479.19165039 C96.38221069 480.26684937 96.38221069 480.26684937 97.24438477 481.36376953 C97.99389404 482.31074707 97.99389404 482.31074707 98.75854492 483.27685547 C100.09953229 485.15631837 101.07148629 487.05735599 102.08032227 489.12939453 C88.56335643 489.43112239 75.04719631 489.66184836 61.52754402 489.80295277 C55.24900175 489.87069194 48.97276936 489.96249856 42.69555664 490.11010742 C36.63287704 490.25177292 30.5724128 490.32917097 24.50820541 490.36279869 C22.19951372 490.38674833 19.89093822 490.43352251 17.58319473 490.50388527 C-1.45052514 491.06093155 -1.45052514 491.06093155 -6.44659424 486.37728882 C-9.1187597 483.24519018 -10.98294223 479.7557259 -12.91967773 476.12939453 C-14.51156809 473.89355441 -16.20497737 471.77578505 -17.91967773 469.62939453 C-18.75003295 468.55429043 -19.57842656 467.4776658 -20.40405273 466.39892578 C-22.12148137 464.16613417 -23.84042316 461.93451745 -25.56030273 459.70361328 C-25.99407227 459.14053467 -26.4278418 458.57745605 -26.87475586 457.99731445 C-27.72691653 456.89146568 -28.57976286 455.78614487 -29.43334961 454.68139648 C-32.2859661 450.9815529 -35.0606691 447.23293869 -37.76342773 443.42236328 C-38.14499023 442.99568359 -38.52655273 442.56900391 -38.91967773 442.12939453 C-39.57967773 442.12939453 -40.23967773 442.12939453 -40.91967773 442.12939453 C-41.24967773 441.18064453 -41.57967773 440.23189453 -41.91967773 439.25439453 C-43.78482748 434.91683699 -46.58430399 431.58786228 -49.57983398 427.97314453 C-52.26858622 424.70534549 -54.84885705 421.36514244 -57.41967773 418.00439453 C-57.86512939 417.42351074 -58.31058105 416.84262695 -58.76953125 416.24414062 C-59.82048876 414.87325474 -60.87022125 413.50142985 -61.91967773 412.12939453 C-62.57967773 412.45939453 -63.23967773 412.78939453 -63.91967773 413.12939453 C-64.0034668 412.41783203 -64.08725586 411.70626953 -64.17358398 410.97314453 C-65.09223244 407.47169912 -66.6300759 405.47883239 -68.85717773 402.62939453 C-69.45236206 401.85934082 -69.45236206 401.85934082 -70.05957031 401.07373047 C-70.90442837 399.98199509 -71.75308446 398.89318988 -72.60522461 397.80712891 C-74.36042138 395.5668406 -76.09189022 393.30871275 -77.82397461 391.05053711 C-78.67501925 389.94220367 -79.52786715 388.83525242 -80.38256836 387.72973633 C-83.21002775 384.07240647 -85.97125295 380.37391505 -88.66577148 376.61767578 C-90.03699259 374.84974994 -90.03699259 374.84974994 -92.91967773 373.12939453 C-92.91967773 372.46939453 -92.91967773 371.80939453 -92.91967773 371.12939453 C-93.81704014 369.80783784 -94.77978008 368.53034077 -95.77124023 367.27783203 C-96.37581055 366.50826172 -96.98038086 365.73869141 -97.60327148 364.94580078 C-98.24393555 364.14013672 -98.88459961 363.33447266 -99.54467773 362.50439453 C-100.78754217 360.92940765 -102.02973486 359.35389043 -103.27124023 357.77783203 C-104.18631348 356.61912598 -104.18631348 356.61912598 -105.11987305 355.43701172 C-107.35212614 352.57493139 -109.51975745 349.66829967 -111.67114258 346.74511719 C-112.96727856 344.99702318 -112.96727856 344.99702318 -114.91967773 343.12939453 C-115.39405273 342.59314453 -115.86842773 342.05689453 -116.35717773 341.50439453 C-117.94814229 339.79908058 -117.94814229 339.79908058 -120.91967773 340.12939453 C-120.70529053 339.54472412 -120.49090332 338.96005371 -120.27001953 338.35766602 C-119.69650734 336.13024401 -119.69650734 336.13024401 -120.84082031 334.32104492 C-121.57014771 333.40826782 -121.57014771 333.40826782 -122.31420898 332.47705078 C-122.85271484 331.78957764 -123.3912207 331.10210449 -123.94604492 330.39379883 C-124.53546875 329.66717041 -125.12489258 328.94054199 -125.73217773 328.19189453 C-126.32804688 327.43626221 -126.92391602 326.68062988 -127.5378418 325.90209961 C-128.75163978 324.36307268 -129.97022554 322.82780951 -131.19360352 321.29638672 C-133.55562719 318.33099462 -135.86500802 315.3269146 -138.16967773 312.31689453 C-138.96889648 311.27919922 -139.76811523 310.24150391 -140.59155273 309.17236328 C-143.63871192 305.18958307 -146.63943044 301.17292386 -149.64233398 297.15673828 C-154.48543386 290.71865526 -159.42641742 284.35502505 -164.35327148 277.98095703 C-169.41625955 271.41932449 -174.41210534 264.81263968 -179.3659668 258.16821289 C-183.2951825 252.91634749 -187.32594257 247.75134771 -191.44287109 242.64526367 C-195.80820336 237.17565763 -195.80820336 237.17565763 -196.91967773 234.12939453 C-196.42467773 233.13939453 -196.42467773 233.13939453 -195.91967773 232.12939453 C-195.25967773 232.12939453 -194.59967773 232.12939453 -193.91967773 232.12939453 C-193.50890991 231.25456421 -193.50890991 231.25456421 -193.08984375 230.36206055 C-191.94761905 228.18270631 -190.69330902 226.35603262 -189.19702148 224.40673828 C-188.66310791 223.7090332 -188.12919434 223.01132812 -187.57910156 222.29248047 C-187.0108667 221.55803711 -186.44263184 220.82359375 -185.85717773 220.06689453 C-185.27154053 219.30538086 -184.68590332 218.54386719 -184.08251953 217.75927734 C-180.17744895 212.70105672 -176.17955697 207.7305423 -172.10327148 202.80908203 C-168.7413727 198.6833887 -165.51843359 194.45411935 -162.29077148 190.22314453 C-159.63564599 186.75879627 -156.92754866 183.33921004 -154.19702148 179.93408203 C-152.73172061 178.04879128 -152.73172061 178.04879128 -151.91967773 175.12939453 C-151.25967773 175.45939453 -150.59967773 175.78939453 -149.91967773 176.12939453 C-149.65155273 175.38689453 -149.38342773 174.64439453 -149.10717773 173.87939453 C-147.96691023 171.23877504 -146.82587468 169.27386609 -144.91967773 167.12939453 C-144.25967773 167.12939453 -143.59967773 167.12939453 -142.91967773 167.12939453 C-142.63987061 166.5394873 -142.36006348 165.94958008 -142.07177734 165.34179688 C-141.00754985 163.2981373 -139.86991573 161.56708868 -138.48608398 159.73095703 C-137.76859985 158.77552002 -137.76859985 158.77552002 -137.03662109 157.80078125 C-136.52365479 157.12547363 -136.01068848 156.45016602 -135.48217773 155.75439453 C-134.94794189 155.04686035 -134.41370605 154.33932617 -133.86328125 153.61035156 C-129.07893636 147.29476216 -124.19788317 141.05787428 -119.27856445 134.84716797 C-116.98455678 131.94730487 -114.70276212 129.03785958 -112.41967773 126.12939453 C-109.70641755 122.67502123 -106.99242406 119.22123388 -104.27514648 115.77001953 C-98.45838735 108.37911265 -92.67755925 100.96108821 -86.90966797 93.53198242 C-83.85683232 89.60449818 -80.78878993 85.69215514 -77.66967773 81.81689453 C-74.40149117 77.7557935 -71.21531572 73.63609162 -68.04492188 69.49829102 C-64.42262728 64.77347027 -60.76737533 60.07489081 -57.10717773 55.37939453 C-52.5148867 49.48514609 -47.95071989 43.57084819 -43.41967773 37.62939453 C-37.68790955 30.1161071 -31.91691897 22.63460241 -26.08374023 15.19970703 C-24.17795762 12.76648133 -22.31169634 10.31709664 -20.50561523 7.80908203 C-19.83788086 6.90416016 -19.17014648 5.99923828 -18.48217773 5.06689453 C-17.9472168 4.31279297 -17.41225586 3.55869141 -16.86108398 2.78173828 C-12.50376521 -0.92680466 -5.496085 -0.01587129 0 0 Z " fill="#292A2A" transform="translate(720.919677734375,247.87060546875)"/>
<path d="M0 0 C0.66 0.33 1.32 0.66 2 1 C2.02287588 47.2863386 2.04050307 93.5726766 2.05106533 139.85901974 C2.05231608 145.32031981 2.05361039 150.78161987 2.05493164 156.24291992 C2.05519395 157.33019215 2.05545626 158.41746437 2.05572652 159.53768424 C2.06008091 177.15559273 2.0679672 194.77349797 2.0771528 212.39140453 C2.08649574 230.46145677 2.09205697 248.53150729 2.09408849 266.60156184 C2.09546239 277.75676462 2.09980578 288.9119582 2.10791647 300.06715814 C2.11319181 307.71087216 2.11480249 315.35458141 2.11350138 322.99829712 C2.11285924 327.41197861 2.11386159 331.82564401 2.11920547 336.23932266 C2.12405955 340.27783246 2.12432536 344.31631528 2.12089889 348.35482631 C2.12047519 349.81789402 2.12175399 351.28096339 2.12488318 352.74402782 C2.12888341 354.72936059 2.12614108 356.71470356 2.12304783 358.70003796 C2.12342755 359.80388496 2.12380727 360.90773196 2.1241985 362.04502887 C2.00802739 364.80900967 1.62852796 367.31096297 1 370 C0.67 370 0.34 370 0 370 C-1.32526623 353.404704 -1.10103326 336.78491703 -1.03152263 320.15168643 C-1.01470286 315.84522511 -1.0040541 311.53874765 -0.99261475 307.23226929 C-0.97202247 299.79079707 -0.94761448 292.34934546 -0.92053413 284.90789413 C-0.88138727 274.14911436 -0.84812042 263.39032256 -0.81623887 252.63151909 C-0.76434213 235.17148664 -0.70776138 217.71147269 -0.64819336 200.25146484 C-0.59037592 183.30160236 -0.53479034 166.35173495 -0.48217773 149.40185547 C-0.47892802 148.35516205 -0.4756783 147.30846863 -0.4723301 146.23005722 C-0.45603913 140.97853567 -0.43979173 135.72701399 -0.42356598 130.47549224 C-0.28913198 86.98363871 -0.14707871 43.49181249 0 0 Z " fill="#040405" transform="translate(430,248)"/>
<path d="M0 0 C26.4 0 52.8 0 80 0 C81.35501258 2.71002516 81.12410559 4.81696295 81.12304783 7.8527317 C81.12503888 9.10725281 81.12702993 10.36177392 81.12908131 11.65431082 C81.12622789 13.05938652 81.12328229 14.46446202 81.12025452 15.86953735 C81.12069021 17.35206698 81.12156509 18.83459654 81.12284368 20.31712568 C81.12508894 24.40578174 81.12106693 28.49441181 81.11606562 32.58306456 C81.11176175 36.9866152 81.1132075 41.39016428 81.1139679 45.79371643 C81.11449317 53.42807998 81.111346 61.06243501 81.10573006 68.69679642 C81.09761554 79.73490817 81.09499989 90.77301579 81.09374207 101.81113021 C81.09155147 119.71816467 81.08489118 137.62519458 81.07543945 155.53222656 C81.06626553 172.93098935 81.0591846 190.32975091 81.05493164 207.72851562 C81.05466892 208.80032159 81.05440619 209.87212756 81.05413551 210.97641249 C81.05283051 216.35315279 81.05156679 221.72989311 81.05032361 227.10663342 C81.03995076 271.73775877 81.02233223 316.36887915 81 361 C80.67 361 80.34 361 80 361 C80 243.19 80 125.38 80 4 C53.6 4 27.2 4 0 4 C0 2.68 0 1.36 0 0 Z " fill="#393A3A" transform="translate(432,248)"/>
<path d="M0 0 C26.4 0 52.8 0 80 0 C80 0.99 80 1.98 80 3 C53.6 3 27.2 3 0 3 C0 2.01 0 1.02 0 0 Z " fill="#212121" transform="translate(432,248)"/>
<path d="M0 0 C0.33 0.66 0.66 1.32 1 2 C1.66 2 2.32 2 3 2 C4.58431652 3.86157191 6.0486243 5.72570166 7.5 7.6875 C8.40608396 8.88944811 9.31233862 10.09126754 10.21875 11.29296875 C10.68152344 11.91091309 11.14429688 12.52885742 11.62109375 13.16552734 C13.72332271 15.96229583 15.86198007 18.73056168 18 21.5 C18.83876223 22.58967401 19.67730347 23.67951816 20.515625 24.76953125 C20.92876953 25.30658691 21.34191406 25.84364258 21.76757812 26.39697266 C22.96570543 27.9553926 24.16255913 29.51479144 25.359375 31.07421875 C28.99858413 35.81351561 32.64335922 40.54770044 36.3203125 45.2578125 C42.65738511 53.37636324 48.94624748 61.52255751 55.09326172 69.78637695 C55.77799561 70.70616333 55.77799561 70.70616333 56.4765625 71.64453125 C56.90227539 72.22025879 57.32798828 72.79598633 57.76660156 73.38916016 C58.91847704 74.8935296 60.15606787 76.33117261 61.3984375 77.76171875 C61.92695312 78.50035156 62.45546875 79.23898437 63 80 C62.505 81.485 62.505 81.485 62 83 C61.34 81.68 60.68 80.36 60 79 C59.34 79 58.68 79 58 79 C56.5008223 77.07337081 55.1193473 75.14179862 53.75 73.125 C49.66754611 67.25799583 45.4073949 61.56429207 41 55.9375 C40.39986084 55.17099121 39.79972168 54.40448242 39.18139648 53.61474609 C38.00075143 52.10790187 36.81969193 50.60138227 35.63818359 49.09521484 C33.34413163 46.16115315 31.07670496 43.20711397 28.8125 40.25 C24.95233564 35.2210461 21.04574021 30.23101035 17.12231445 25.25146484 C12.36454195 19.20627516 7.66852514 13.11437434 3 7 C2.4121875 6.28070313 1.824375 5.56140625 1.21875 4.8203125 C0 3 0 3 0 0 Z " fill="#161616" transform="translate(620,473)"/>
<path d="M0 0 C7.84978215 -0.02321424 15.69955619 -0.0409613 23.54936409 -0.05181217 C27.19470562 -0.05702116 30.84002359 -0.06408265 34.48535156 -0.07543945 C38.00611476 -0.086339 41.52685535 -0.09229178 45.04763412 -0.09487724 C47.03836564 -0.09761236 49.02908812 -0.10541313 51.01980591 -0.11329651 C52.24061859 -0.11337204 53.46143127 -0.11344757 54.71923828 -0.11352539 C55.78957306 -0.115746 56.85990784 -0.11796661 57.962677 -0.12025452 C61.05083351 0.00201261 63.96590813 0.42644474 67 1 C67 1.66 67 2.32 67 3 C44.56 3 22.12 3 -1 3 C-0.67 2.01 -0.34 1.02 0 0 Z " fill="#232323" transform="translate(228,596)"/>
<path d="M0 0 C3.97440514 1.52381901 5.67652269 3.90179821 8.125 7.3125 C8.91968118 8.40429545 9.71528672 9.49541858 10.51171875 10.5859375 C10.92083496 11.15022461 11.32995117 11.71451172 11.75146484 12.29589844 C13.7664341 15.04609113 15.85133527 17.74114947 17.9375 20.4375 C18.78391205 21.53511162 19.63026597 22.63276806 20.4765625 23.73046875 C20.89583008 24.27364746 21.31509766 24.81682617 21.74707031 25.37646484 C26.76004098 31.87222769 26.76004098 31.87222769 29.01464844 34.82373047 C31.49280875 38.06402727 34.00846581 41.26984539 36.5546875 44.45703125 C37.76565422 45.99216445 38.976592 47.52732048 40.1875 49.0625 C40.77700439 49.78920898 41.36650879 50.51591797 41.97387695 51.26464844 C42.51230225 51.95204102 43.05072754 52.63943359 43.60546875 53.34765625 C44.09168701 53.95617432 44.57790527 54.56469238 45.07885742 55.19165039 C46 57 46 57 45.6496582 59.22827148 C45.32807739 60.1052771 45.32807739 60.1052771 45 61 C44.64921387 60.51869629 44.29842773 60.03739258 43.93701172 59.54150391 C35.73979071 48.31181565 27.37906084 37.23444853 18.79833984 26.29541016 C15.62623436 22.24651853 12.47011142 18.18519769 9.3125 14.125 C8.72404297 13.36952881 8.13558594 12.61405762 7.52929688 11.83569336 C6.97951172 11.12936768 6.42972656 10.42304199 5.86328125 9.6953125 C5.38157471 9.07672363 4.89986816 8.45813477 4.40356445 7.82080078 C3.94038818 7.21993652 3.47721191 6.61907227 3 6 C2.44594482 5.30503418 1.89188965 4.61006836 1.32104492 3.89404297 C0 2 0 2 0 0 Z " fill="#171717" transform="translate(749,642)"/>
<path d="M0 0 C9.51023198 -0.02322472 19.02045411 -0.04096659 28.53070831 -0.05181217 C32.94724025 -0.05701889 37.36375271 -0.06407619 41.78027344 -0.07543945 C46.04668874 -0.08634715 50.31308537 -0.09229348 54.57951355 -0.09487724 C56.20289911 -0.09671733 57.8262837 -0.10031045 59.44966125 -0.10573006 C61.73273892 -0.11304525 64.01574053 -0.11398656 66.29882812 -0.11352539 C67.59566528 -0.115746 68.89250244 -0.11796661 70.2286377 -0.12025452 C74.22540411 0.00718729 78.0425736 0.44563424 82 1 C80.45158425 4.34708051 78.50894136 7.24667512 76.375 10.25 C75.42753906 11.58804687 75.42753906 11.58804687 74.4609375 12.953125 C73.97882813 13.62859375 73.49671875 14.3040625 73 15 C72.01 14.67 71.02 14.34 70 14 C72.97 10.04 75.94 6.08 79 2 C75.473125 2.01740234 75.473125 2.01740234 71.875 2.03515625 C47.90037024 2.12479922 23.96332598 1.72052863 0 1 C0 0.67 0 0.34 0 0 Z " fill="#383738" transform="translate(718,248)"/>
<path d="M0 0 C0.77155426 0.01936111 1.54310852 0.03872223 2.33804321 0.05867004 C4.86494864 0.12345645 7.39153909 0.19655196 9.91821289 0.26977539 C11.67939415 0.31655997 13.44058937 0.36282193 15.20179749 0.40858459 C19.81982405 0.52997475 24.43762762 0.65843205 29.05541992 0.78839111 C33.7745435 0.91994064 38.4938445 1.04476538 43.21313477 1.17016602 C52.46006491 1.4168616 61.70677332 1.67102791 70.95336914 1.92993164 C70.95336914 2.25993164 70.95336914 2.58993164 70.95336914 2.92993164 C28.38336914 3.42493164 28.38336914 3.42493164 -15.04663086 3.92993164 C-15.04663086 2.93993164 -15.04663086 1.94993164 -15.04663086 0.92993164 C-9.97698774 0.07676184 -5.14268021 -0.16069855 0 0 Z " fill="#060606" transform="translate(721.046630859375,248.070068359375)"/>
<path d="M0 0 C3.71998209 3.46434351 6.62408372 7.36165029 9.625 11.4375 C10.69727038 12.88068874 11.77019623 14.32339069 12.84375 15.765625 C13.37613281 16.48169922 13.90851562 17.19777344 14.45703125 17.93554688 C16.65295541 20.87363781 18.88346314 23.78412909 21.125 26.6875 C21.92808594 27.72777344 22.73117187 28.76804687 23.55859375 29.83984375 C24.76708984 31.40412109 24.76708984 31.40412109 26 33 C27.3008789 34.6909948 28.6006664 36.38282464 29.90039062 38.07470703 C34.24690378 43.73209954 38.61090145 49.37555914 43 55 C42.34 55.66 41.68 56.32 41 57 C34.49023173 48.93713981 28.05024711 40.85857701 21.9375 32.48828125 C20.07081425 29.97662646 20.07081425 29.97662646 17.875 27.91796875 C15.97283898 25.97221654 15.18758798 24.41916069 14 22 C12.40229962 19.84560959 10.78713497 17.72810955 9.125 15.625 C0 4.03597923 0 4.03597923 0 0 Z " fill="#181818" transform="translate(665,664)"/>
<path d="M0 0 C4.56066785 4.29239327 4.56066785 4.29239327 6.24659157 7.0078125 C8.89648405 11.29677459 8.89648405 11.29677459 13.13981247 13.7421875 C15.74268456 14.02436764 18.24313645 14.0556249 20.86083984 14 C21.83707306 14.01092178 22.81330627 14.02184357 23.81912231 14.03309631 C27.0341281 14.05973067 30.24600516 14.03017264 33.4609375 14 C35.69440116 14.00751976 37.92785553 14.01855476 40.1612854 14.03295898 C46.03063069 14.06138258 51.89888487 14.04210822 57.76818848 14.01287842 C63.76089601 13.99148096 69.75340638 14.01522154 75.74609375 14.03515625 C87.49764198 14.06759894 99.24853193 14.04964992 111 14 C111 14.33 111 14.66 111 15 C97.85683697 15.27842942 84.71437878 15.49145238 71.56886387 15.62174606 C65.46419957 15.68429284 59.36155716 15.7690743 53.25805664 15.90527344 C47.36399018 16.03597113 41.47186386 16.10747218 35.57645988 16.13852692 C33.33118074 16.16064643 31.08600419 16.20384586 28.84155464 16.26876068 C10.34986699 16.78215714 10.34986699 16.78215714 5.56686401 12.35412598 C2.41575012 8.67061521 0 4.94290041 0 0 Z " fill="#000000" transform="translate(708,721)"/>
<path d="M0 0 C6.52610442 4.51807229 6.52610442 4.51807229 8.84375 6.875 C20.25569142 18.12155096 35.48121418 24.77766322 50 31 C50 31.33 50 31.66 50 32 C43.24268879 31.58250022 38.51529349 29.62622846 32.625 26.375 C31.78501465 25.91988037 30.9450293 25.46476074 30.07958984 24.99584961 C24.08432761 21.70281663 18.36234596 18.26392994 13 14 C12.45021484 13.56478027 11.90042969 13.12956055 11.33398438 12.68115234 C9.50147044 11.21917627 7.68551872 9.739109 5.875 8.25 C5.29314941 7.77763916 4.71129883 7.30527832 4.11181641 6.81860352 C2.68174158 5.61293446 1.33304557 4.31215144 0 3 C0 2.01 0 1.02 0 0 Z " fill="#181818" transform="translate(257,704)"/>
<path d="M0 0 C3.80989965 1.26996655 4.54115828 2.75904244 6.875 6 C7.67079152 7.09063514 8.46773729 8.1804287 9.265625 9.26953125 C9.69939453 9.86459473 10.13316406 10.4596582 10.58007812 11.07275391 C13.21374583 14.64740536 15.92384698 18.1637513 18.625 21.6875 C19.18123047 22.41727051 19.73746094 23.14704102 20.31054688 23.89892578 C23.78917227 28.4560905 27.33364499 32.94665826 31.0234375 37.3359375 C31.34570312 37.88507812 31.66796875 38.43421875 32 39 C31.67 39.99 31.34 40.98 31 42 C22.8782254 32.14907339 14.98141786 22.17603221 7.41064453 11.89453125 C6.3932173 10.52810076 5.36106225 9.17259326 4.31982422 7.82421875 C3.76955566 7.10878906 3.21928711 6.39335938 2.65234375 5.65625 C2.14566162 5.00462891 1.63897949 4.35300781 1.11694336 3.68164062 C0 2 0 2 0 0 Z " fill="#161516" transform="translate(697,574)"/>
<path d="M0 0 C0.71438232 0.06566162 1.42876465 0.13132324 2.16479492 0.19897461 C12.20802849 1.05256716 22.23930066 1.32375241 32.3125 1.5625 C34.035815 1.60581405 35.7591224 1.64943181 37.48242188 1.69335938 C41.65486869 1.79906713 45.8273962 1.90069031 50 2 C50 2.33 50 2.66 50 3 C39.29577613 4.98792729 29.1087978 5.03323458 18.25 4.25 C17.02442383 4.16379395 15.79884766 4.07758789 14.53613281 3.98876953 C9.28654454 3.56283206 4.84350937 3.18013594 0 1 C0 0.67 0 0.34 0 0 Z " fill="#101010" transform="translate(333,743)"/>
<path d="M0 0 C0.33 0 0.66 0 1 0 C4.45448245 14.61511804 -1.70053656 31.41044024 -7 45 C-7.66 45 -8.32 45 -9 45 C-8.30648231 40.05186819 -7.01970945 35.44828152 -5.5625 30.6875 C-2.4761376 20.33651855 -0.63646794 10.83670407 0 0 Z " fill="#191919" transform="translate(512,614)"/>
<path d="M0 0 C0.66 0 1.32 0 2 0 C2.02477057 5.17781223 2.04289347 10.35558975 2.05493164 15.53344727 C2.0599517 17.29387005 2.0667691 19.05428868 2.07543945 20.81469727 C2.08760703 23.34913154 2.09325166 25.88351054 2.09765625 28.41796875 C2.10281754 29.20149216 2.10797882 29.98501556 2.11329651 30.7922821 C2.11369066 34.65591139 1.9444276 38.245165 1 42 C0.67 42 0.34 42 0 42 C-0.7124302 31.80970375 -1.10580905 21.65428071 -1.125 11.4375 C-1.12951172 10.42034912 -1.13402344 9.40319824 -1.13867188 8.35522461 C-1.13673828 7.41171143 -1.13480469 6.46819824 -1.1328125 5.49609375 C-1.13168457 4.65232178 -1.13055664 3.8085498 -1.12939453 2.93920898 C-1 1 -1 1 0 0 Z " fill="#060606" transform="translate(430,576)"/>
<path d="M0 0 C0.66 0.33 1.32 0.66 2 1 C-15.87093338 25.10005736 -15.87093338 25.10005736 -22 31 C-21.67161274 25.5233479 -18.33349433 22.30367833 -14.9375 18.3125 C-13.75491994 16.89216715 -12.57262812 15.47159426 -11.390625 14.05078125 C-10.5234082 13.01751709 -10.5234082 13.01751709 -9.63867188 11.96337891 C-7.44857362 9.33930707 -5.31518473 6.674913 -3.1875 4 C-2.56230469 3.21625 -1.93710937 2.4325 -1.29296875 1.625 C-0.86628906 1.08875 -0.43960938 0.5525 0 0 Z " fill="#161617" transform="translate(655,315)"/>
<path d="M0 0 C4.52902993 4.27121039 8.26980474 9.01061592 12.0625 13.9375 C12.67416016 14.72318359 13.28582031 15.50886719 13.91601562 16.31835938 C17.11389936 20.44967944 20.17219611 24.60667874 23 29 C22.01 29 21.02 29 20 29 C18.45361328 27.44287109 18.45361328 27.44287109 16.8203125 25.2734375 C16.22089844 24.48839844 15.62148438 23.70335937 15.00390625 22.89453125 C14.38386719 22.06308594 13.76382813 21.23164062 13.125 20.375 C11.8993398 18.75712854 10.67279373 17.13992777 9.4453125 15.5234375 C8.86064209 14.74726074 8.27597168 13.97108398 7.67358398 13.17138672 C6.2007046 11.2604036 4.67985166 9.42099262 3.10546875 7.59375 C0.94446561 4.93158657 0.29770894 3.37403463 0 0 Z " fill="#191818" transform="translate(605,586)"/>
<path d="M0 0 C4.87543239 4.57071786 8.90607923 9.73016582 13 15 C13.40927734 15.52174805 13.81855469 16.04349609 14.24023438 16.58105469 C15.50197465 18.19349306 16.75240997 19.81409701 18 21.4375 C19.1446875 22.92056641 19.1446875 22.92056641 20.3125 24.43359375 C22 27 22 27 22 30 C17.43185754 25.70108267 13.6866346 20.90867396 9.875 15.9375 C9.25496094 15.13505859 8.63492188 14.33261719 7.99609375 13.50585938 C6.32543849 11.34119315 4.65846478 9.17401848 3 7 C2.15912842 5.97434937 2.15912842 5.97434937 1.30126953 4.92797852 C0 3 0 3 0 0 Z " fill="#171717" transform="translate(533,492)"/>
<path d="M0 0 C4.03338896 3.87740155 7.57411984 8.00465202 11.0625 12.375 C11.8369043 13.32632813 11.8369043 13.32632813 12.62695312 14.296875 C15.87158931 18.34750361 18.53794479 22.43014213 21 27 C20.01 27 19.02 27 18 27 C16.30859375 25.05078125 16.30859375 25.05078125 14.4375 22.3125 C12.1099043 18.97064472 9.77850004 15.67652519 7.25390625 12.48046875 C6.79636963 11.90063232 6.33883301 11.3207959 5.86743164 10.72338867 C4.96662463 9.588092 4.06096527 8.45662604 3.15014648 7.3293457 C0 3.32967983 0 3.32967983 0 0 Z " fill="#171717" transform="translate(556,522)"/>
<path d="M0 0 C8.03473466 7.85148633 14.72828023 16.70333501 21 26 C20.01 26.33 19.02 26.66 18 27 C17.70609375 26.52433594 17.4121875 26.04867187 17.109375 25.55859375 C13.15415786 19.38709114 8.66560123 13.75414794 3.96386719 8.14233398 C3.45243164 7.52044189 2.94099609 6.8985498 2.4140625 6.2578125 C1.9495166 5.7023877 1.4849707 5.14696289 1.00634766 4.57470703 C0 3 0 3 0 0 Z " fill="#171717" transform="translate(801,709)"/>
<path d="M0 0 C0.66 0.33 1.32 0.66 2 1 C-3.04735253 5.9004719 -8.36226704 10.11132642 -14.25 13.9375 C-14.83990723 14.32671631 -15.42981445 14.71593262 -16.03759766 15.11694336 C-19.3263805 17.20646815 -22.11587052 18.5400373 -26 19 C-23.62333743 16.39735968 -21.06718854 14.70163885 -18.0625 12.875 C-11.75238842 8.93539825 -5.89099638 4.53390821 0 0 Z " fill="#171716" transform="translate(466,709)"/>
<path d="M0 0 C2.60716728 0.1442708 5.19601836 0.25330095 7.8046875 0.31640625 C8.5286673 0.33718735 9.25264709 0.35796844 9.99856567 0.37937927 C12.29062239 0.44428853 14.58278474 0.50348437 16.875 0.5625 C18.43751053 0.60574112 20.00001072 0.64935711 21.5625 0.69335938 C25.37489426 0.79990896 29.1873938 0.90133795 33 1 C33 1.33 33 1.66 33 2 C17.82 2.33 2.64 2.66 -13 3 C-13 2.01 -13 1.02 -13 0 C-8.25676457 -0.85378238 -4.70821733 -0.79367497 0 0 Z " fill="#0A0A0B" transform="translate(719,249)"/>
<path d="M0 0 C0.33 0.99 0.66 1.98 1 3 C-0.5546875 5.34765625 -0.5546875 5.34765625 -2.875 8.0625 C-3.70128906 9.03058594 -4.52757812 9.99867188 -5.37890625 10.99609375 C-6.24386719 11.98738281 -7.10882813 12.97867188 -8 14 C-9.22009766 15.44052734 -9.22009766 15.44052734 -10.46484375 16.91015625 C-17.01091701 24.48007458 -17.01091701 24.48007458 -21 25 C-17.56843198 20.95250952 -14.07893139 16.98055179 -10.5 13.0625 C-6.72330753 8.88960628 -3.2642056 4.58268865 0 0 Z " fill="#191919" transform="translate(489,683)"/>
<path d="M0 0 C4.64798291 4.36359389 8.44026474 9.25985111 12.3125 14.3125 C13.28026367 15.56643555 13.28026367 15.56643555 14.26757812 16.84570312 C15.84824236 18.89471232 17.42560229 20.94617444 19 23 C18.34 23.66 17.68 24.32 17 25 C15.10181178 22.64769976 13.20641494 20.29323711 11.3125 17.9375 C10.51682617 16.95233398 10.51682617 16.95233398 9.70507812 15.94726562 C0 3.86057324 0 3.86057324 0 0 Z " fill="#181717" transform="translate(579,552)"/>
<path d="M0 0 C3.69786118 1.40518725 7.13113966 3.08697828 10.625 4.9375 C16.27279345 7.80343985 21.8340682 9.61630664 28 11 C25 13 25 13 22.65234375 12.71484375 C14.58941813 10.40617872 6.46297471 7.53548631 0 2 C0 1.34 0 0.68 0 0 Z " fill="#1A1A1A" transform="translate(321,659)"/>
<path d="M0 0 C2.55222728 2.28086978 3.83622168 4.46114827 5.25 7.5625 C7.93493087 13.13763168 11.3321624 18.03203553 15 23 C14.67 23.66 14.34 24.32 14 25 C9.70312077 21.09999061 6.97748805 17.00218712 4.1875 11.9375 C3.78080078 11.23044922 3.37410156 10.52339844 2.95507812 9.79492188 C2.57158203 9.10849609 2.18808594 8.42207031 1.79296875 7.71484375 C1.4477417 7.09730225 1.10251465 6.47976074 0.74682617 5.84350586 C0 4 0 4 0 0 Z " fill="#171717" transform="translate(228,663)"/>
<path d="M0 0 C0.66 0.33 1.32 0.66 2 1 C-0.26344843 3.96405024 -2.53699125 6.92020145 -4.8125 9.875 C-5.45509766 10.71675781 -6.09769531 11.55851562 -6.75976562 12.42578125 C-7.38173828 13.23144531 -8.00371094 14.03710938 -8.64453125 14.8671875 C-9.21534424 15.61081543 -9.78615723 16.35444336 -10.37426758 17.12060547 C-12 19 -12 19 -15 21 C-13.44819028 16.15059464 -10.65241596 12.71025461 -7.5 8.8125 C-7.00113281 8.18408203 -6.50226562 7.55566406 -5.98828125 6.90820312 C-4.07298513 4.50766443 -2.17313341 2.17313341 0 0 Z " fill="#1A191A" transform="translate(567,428)"/>
<path d="M0 0 C0.33 0 0.66 0 1 0 C1.47981648 3.0207314 1.95887232 6.04158021 2.4375 9.0625 C2.57220703 9.91005859 2.70691406 10.75761719 2.84570312 11.63085938 C3.60314397 16.41566861 4.32948293 21.20222252 5 26 C4.34 26 3.68 26 3 26 C2.5359375 24.824375 2.5359375 24.824375 2.0625 23.625 C1.07124962 21.07669872 1.07124962 21.07669872 0 19 C-0.08342159 17.55151418 -0.10732861 16.09929131 -0.09765625 14.6484375 C-0.09443359 13.79765625 -0.09121094 12.946875 -0.08789062 12.0703125 C-0.07951172 11.18085937 -0.07113281 10.29140625 -0.0625 9.375 C-0.05798828 8.4778125 -0.05347656 7.580625 -0.04882812 6.65625 C-0.03702591 4.43743352 -0.02056155 2.21874982 0 0 Z " fill="#151515" transform="translate(216,615)"/>
<path d="M0 0 C0.66 0.33 1.32 0.66 2 1 C-0.09653876 3.79746979 -2.20350462 6.58691259 -4.3125 9.375 C-4.90740234 10.1690625 -5.50230469 10.963125 -6.11523438 11.78125 C-6.69208984 12.54179687 -7.26894531 13.30234375 -7.86328125 14.0859375 C-8.39219971 14.7876709 -8.92111816 15.4894043 -9.46606445 16.21240234 C-11 18 -11 18 -14 20 C-13.40560789 16.94419887 -12.50746889 15.04024951 -10.56640625 12.6171875 C-10.08236328 12.00746094 -9.59832031 11.39773438 -9.09960938 10.76953125 C-8.59236328 10.14433594 -8.08511719 9.51914062 -7.5625 8.875 C-7.05912109 8.24207031 -6.55574219 7.60914063 -6.03710938 6.95703125 C-4.0976819 4.53081521 -2.19835723 2.19835723 0 0 Z " fill="#181818" transform="translate(703,253)"/>
<path d="M0 0 C2.14965431 3.22448147 2.22152284 3.79930965 1.9765625 7.44921875 C1.89921875 8.72055664 1.89921875 8.72055664 1.8203125 10.01757812 C1.75585938 10.89865234 1.69140625 11.77972656 1.625 12.6875 C1.56828125 13.58017578 1.5115625 14.47285156 1.453125 15.39257812 C1.31173702 17.59587413 1.16034022 19.79801539 1 22 C-1.19741148 18.06138704 -1.23367322 14.67216409 -1.125 10.25 C-1.11597656 9.55261719 -1.10695313 8.85523438 -1.09765625 8.13671875 C-1.07419888 6.42433042 -1.03833104 4.71211996 -1 3 C-2.65 3 -4.3 3 -6 3 C-6 2.67 -6 2.34 -6 2 C-4.02 2 -2.04 2 0 2 C0 1.34 0 0.68 0 0 Z " fill="#0A0A0A" transform="translate(296,594)"/>
<path d="M0 0 C0.99 0.33 1.98 0.66 3 1 C1.06553688 3.43992395 -0.87309647 5.8765018 -2.8125 8.3125 C-3.35970703 9.00279297 -3.90691406 9.69308594 -4.47070312 10.40429688 C-5.00244141 11.07138672 -5.53417969 11.73847656 -6.08203125 12.42578125 C-6.56905518 13.03848877 -7.0560791 13.65119629 -7.55786133 14.2824707 C-8.95998031 15.95233815 -10.43475226 17.48347593 -12 19 C-11.60588161 13.71477127 -8.67606288 10.61339832 -5.4375 6.6875 C-4.91736328 6.04232422 -4.39722656 5.39714844 -3.86132812 4.73242188 C-2.58234108 3.14835535 -1.29224956 1.57326594 0 0 Z " fill="#171717" transform="translate(589,399)"/>
<path d="M0 0 C0.66 0.33 1.32 0.66 2 1 C0.07040744 3.63089687 -1.86999493 6.25362638 -3.8125 8.875 C-4.35970703 9.62136719 -4.90691406 10.36773437 -5.47070312 11.13671875 C-6.00244141 11.85214844 -6.53417969 12.56757813 -7.08203125 13.3046875 C-7.81256714 14.2944458 -7.81256714 14.2944458 -8.55786133 15.30419922 C-10 17 -10 17 -13 19 C-12.40444838 15.92256269 -11.48873735 14.01870982 -9.53125 11.58203125 C-9.04269531 10.96779297 -8.55414062 10.35355469 -8.05078125 9.72070312 C-7.53902344 9.09099609 -7.02726563 8.46128906 -6.5 7.8125 C-5.73236328 6.85053711 -5.73236328 6.85053711 -4.94921875 5.86914062 C-1.25979663 1.25979663 -1.25979663 1.25979663 0 0 Z " fill="#161616" transform="translate(630,347)"/>
<path d="M0 0 C3.86116067 1.28705356 5.26966455 3.64442231 7.5625 6.8125 C8.34753906 7.87082031 9.13257813 8.92914062 9.94140625 10.01953125 C11.53276512 12.323529 12.86061592 14.45640202 14 17 C13.01 17 12.02 17 11 17 C9.0625 14.734375 9.0625 14.734375 7 11.75 C6.319375 10.77546875 5.63875 9.8009375 4.9375 8.796875 C4.298125 7.87390625 3.65875 6.9509375 3 6 C2.4225 5.26265625 1.845 4.5253125 1.25 3.765625 C0 2 0 2 0 0 Z " fill="#161616" transform="translate(730,617)"/>
<path d="M0 0 C0 3.37729153 -0.37411207 3.83838882 -2.40625 6.35546875 C-2.90253906 6.97744141 -3.39882813 7.59941406 -3.91015625 8.24023438 C-4.43480469 8.88283203 -4.95945312 9.52542969 -5.5 10.1875 C-6.28697266 11.16879883 -6.28697266 11.16879883 -7.08984375 12.16992188 C-8.38675581 13.7851669 -9.69254664 15.39327566 -11 17 C-11.33 16.01 -11.66 15.02 -12 14 C-10.47158727 11.65268916 -8.93780597 9.54452675 -7.1875 7.375 C-6.72279297 6.776875 -6.25808594 6.17875 -5.77929688 5.5625 C-2.30034722 1.15017361 -2.30034722 1.15017361 0 0 Z " fill="#161616" transform="translate(549,452)"/>
<path d="M0 0 C-1.74843118 1.12743666 -3.4988094 2.2518542 -5.25 3.375 C-6.22453125 4.00148438 -7.1990625 4.62796875 -8.203125 5.2734375 C-14.239819 9 -14.239819 9 -18 9 C-18 8.34 -18 7.68 -18 7 C-15.56876731 5.63336613 -13.13113837 4.2816133 -10.6875 2.9375 C-9.99720703 2.54755859 -9.30691406 2.15761719 -8.59570312 1.75585938 C-3.33984375 -1.11328125 -3.33984375 -1.11328125 0 0 Z " fill="#161616" transform="translate(408,660)"/>
<path d="M0 0 C3.90037529 1.3001251 5.07500029 3.24377072 7.625 6.4375 C8.42164063 7.42621094 9.21828125 8.41492188 10.0390625 9.43359375 C12 12 12 12 13 14 C9.82938228 13.70184558 8.90828236 12.9053972 6.640625 10.56640625 C5.85171875 9.57511719 5.0628125 8.58382812 4.25 7.5625 C3.45078125 6.57378906 2.6515625 5.58507812 1.828125 4.56640625 C0 2 0 2 0 0 Z " fill="#1B1B1B" transform="translate(243,689)"/>
<path d="M0 0 C3.88800558 1.29600186 5.39873667 3.70784087 7.75 6.875 C8.17410156 7.41769531 8.59820313 7.96039062 9.03515625 8.51953125 C10.234375 10.1171875 10.234375 10.1171875 12 13 C11.67 13.99 11.34 14.98 11 16 C9.16074213 13.71287089 7.32848506 11.42071465 5.5 9.125 C4.97535156 8.47402344 4.45070313 7.82304688 3.91015625 7.15234375 C3.16572266 6.21455078 3.16572266 6.21455078 2.40625 5.2578125 C1.94541016 4.6817627 1.48457031 4.10571289 1.00976562 3.51220703 C0 2 0 2 0 0 Z " fill="#151515" transform="translate(684,557)"/>
<path d="M0 0 C3.92488093 3.70060202 7.02215543 7.4906925 10 12 C10 12.66 10 13.32 10 14 C9.34 14 8.68 14 8 14 C6.375 12 6.375 12 5 10 C4.01 10.495 4.01 10.495 3 11 C2.87625 10.236875 2.7525 9.47375 2.625 8.6875 C2.11897208 5.79732864 2.11897208 5.79732864 0 3 C0 2.01 0 1.02 0 0 Z " fill="#1B1B1B" transform="translate(654,650)"/>
<path d="M0 0 C0.33 0.99 0.66 1.98 1 3 C-0.74294474 5.3681635 -2.48379005 7.50699905 -4.4375 9.6875 C-4.96666016 10.29400391 -5.49582031 10.90050781 -6.04101562 11.52539062 C-7.35161048 13.02490005 -8.67466418 14.51350334 -10 16 C-10.66 15.67 -11.32 15.34 -12 15 C-8.04 10.05 -4.08 5.1 0 0 Z " fill="#161515" transform="translate(649,437)"/>
<path d="M0 0 C4.54109672 4.26587874 8.24735246 9.03612328 12 14 C11.01 14.33 10.02 14.66 9 15 C7.49105621 13.06891122 5.99288466 11.13093994 4.5 9.1875 C4.07074219 8.64029297 3.64148438 8.09308594 3.19921875 7.52929688 C0 3.33984375 0 3.33984375 0 0 Z " fill="#141313" transform="translate(708,721)"/>
<path d="M0 0 C3.10302911 5.3107178 2.44557894 11.21513159 1.5 17.125 C1.335 17.74375 1.17 18.3625 1 19 C0.67 19 0.34 19 0 19 C-0.1938211 16.02111874 -0.38035102 13.04209754 -0.5625 10.0625 C-0.61857422 9.21236328 -0.67464844 8.36222656 -0.73242188 7.48632812 C-0.80493164 6.27299805 -0.80493164 6.27299805 -0.87890625 5.03515625 C-0.9260376 4.2862915 -0.97316895 3.53742676 -1.02172852 2.76586914 C-1 1 -1 1 0 0 Z " fill="#111111" transform="translate(430,599)"/>
<path d="M0 0 C0.99 0 1.98 0 3 0 C1.45158425 3.34708051 -0.49105864 6.24667512 -2.625 9.25 C-3.25664063 10.14203125 -3.88828125 11.0340625 -4.5390625 11.953125 C-5.02117188 12.62859375 -5.50328125 13.3040625 -6 14 C-6.99 13.67 -7.98 13.34 -9 13 C-8.15115234 11.96939453 -8.15115234 11.96939453 -7.28515625 10.91796875 C-6.55167969 10.01691406 -5.81820312 9.11585938 -5.0625 8.1875 C-3.96615234 6.84751953 -3.96615234 6.84751953 -2.84765625 5.48046875 C-0.84817309 3.06637081 -0.84817309 3.06637081 0 0 Z " fill="#151516" transform="translate(797,249)"/>
<path d="M0 0 C4.08371057 3.6125132 7.53618364 8.13508261 10 13 C9.67 13.99 9.34 14.98 9 16 C0 4.52427184 0 4.52427184 0 0 Z " fill="#131314" transform="translate(302,635)"/>
<path d="M0 0 C0.33 0.99 0.66 1.98 1 3 C-0.57871821 5.20430375 -2.14761637 7.16942403 -3.9375 9.1875 C-4.41896484 9.74630859 -4.90042969 10.30511719 -5.39648438 10.88085938 C-6.58857598 12.26179717 -7.79314375 13.63194679 -9 15 C-9.33 14.01 -9.66 13.02 -10 12 C-8.671875 10.09765625 -8.671875 10.09765625 -6.75 8.0625 C-4.32956324 5.46703165 -2.08412064 2.87531459 0 0 Z " fill="#151515" transform="translate(696,378)"/>
<path d="M0 0 C0.33 0.66 0.66 1.32 1 2 C-3.62 2.33 -8.24 2.66 -13 3 C-13 2.01 -13 1.02 -13 0 C-8.38032292 -0.83154187 -4.57462259 -1.19811544 0 0 Z " fill="#111011" transform="translate(719,249)"/>
<path d="M0 0 C1 3 1 3 -0.21484375 5.69921875 C-0.78332031 6.68535156 -1.35179687 7.67148437 -1.9375 8.6875 C-2.50339844 9.68136719 -3.06929688 10.67523437 -3.65234375 11.69921875 C-4.31943359 12.83810547 -4.31943359 12.83810547 -5 14 C-5.99 13.67 -6.98 13.34 -8 13 C-5.36 8.71 -2.72 4.42 0 0 Z " fill="#181818" transform="translate(498,668)"/>
<path d="M0 0 C4.29 0.33 8.58 0.66 13 1 C13 1.66 13 2.32 13 3 C8.38 3 3.76 3 -1 3 C-0.67 2.01 -0.34 1.02 0 0 Z " fill="#111112" transform="translate(228,596)"/>
<path d="M0 0 C-3.0840238 3.0840238 -6.75383401 3.46838809 -11 4 C-13.76131613 3.88627199 -16.27029701 3.49630963 -19 3 C-19 2.67 -19 2.34 -19 2 C-16.95928485 1.66089006 -14.91737379 1.32897296 -12.875 1 C-11.73804688 0.814375 -10.60109375 0.62875 -9.4296875 0.4375 C-6.23862398 0.03043951 -3.21182209 -0.07809902 0 0 Z " fill="#222222" transform="translate(389,669)"/>
<path d="M0 0 C0.66 0 1.32 0 2 0 C0.47987323 5.40489519 -3.27385218 8.98492628 -7 13 C-7.66 12.67 -8.32 12.34 -9 12 C-7 9.33333333 -5 6.66666667 -3 4 C-2.48050781 3.25234375 -1.96101563 2.5046875 -1.42578125 1.734375 C-0.95527344 1.16203125 -0.48476563 0.5896875 0 0 Z " fill="#161616" transform="translate(419,644)"/>
<path d="M0 0 C0.99 0.33 1.98 0.66 3 1 C3.33 5.62 3.66 10.24 4 15 C0.59141414 11.59141414 0.06991606 6.67798535 -0.125 2 C-0.08375 1.34 -0.0425 0.68 0 0 Z " fill="#181818" transform="translate(297,617)"/>
<path d="M0 0 C0.33 0.99 0.66 1.98 1 3 C-0.87109375 5.69921875 -0.87109375 5.69921875 -3.4375 8.6875 C-4.28183594 9.68136719 -5.12617187 10.67523438 -5.99609375 11.69921875 C-6.98802734 12.83810547 -6.98802734 12.83810547 -8 14 C-8.33 13.01 -8.66 12.02 -9 11 C-7.12890625 8.30078125 -7.12890625 8.30078125 -4.5625 5.3125 C-3.71816406 4.31863281 -2.87382813 3.32476562 -2.00390625 2.30078125 C-1.01197266 1.16189453 -1.01197266 1.16189453 0 0 Z " fill="#181717" transform="translate(684,393)"/>
<path d="M0 0 C0.33 0.99 0.66 1.98 1 3 C-0.87109375 5.69921875 -0.87109375 5.69921875 -3.4375 8.6875 C-4.28183594 9.68136719 -5.12617187 10.67523438 -5.99609375 11.69921875 C-6.98802734 12.83810547 -6.98802734 12.83810547 -8 14 C-8.33 13.01 -8.66 12.02 -9 11 C-7.12890625 8.30078125 -7.12890625 8.30078125 -4.5625 5.3125 C-3.71816406 4.31863281 -2.87382813 3.32476562 -2.00390625 2.30078125 C-1.01197266 1.16189453 -1.01197266 1.16189453 0 0 Z " fill="#161616" transform="translate(735,329)"/>
<path d="M0 0 C3.63559661 3.43361902 6.36113346 6.7973607 9 11 C8.01 11 7.02 11 6 11 C4.39453125 9.35546875 4.39453125 9.35546875 2.8125 7.1875 C2.28269531 6.47980469 1.75289062 5.77210938 1.20703125 5.04296875 C0 3 0 3 0 0 Z " fill="#151514" transform="translate(699,709)"/>
<path d="M0 0 C0.33 0.99 0.66 1.98 1 3 C-1.64 5.97 -4.28 8.94 -7 12 C-7.33 11.01 -7.66 10.02 -8 9 C-5.36 6.03 -2.72 3.06 0 0 Z " fill="#161514" transform="translate(630,461)"/>
<path d="M0 0 C2.33333333 2.33333333 4.66666667 4.66666667 7 7 C6.625 9.125 6.625 9.125 6 11 C2.49645499 7.81495908 0.9848601 4.5960138 0 0 Z " fill="#201F20" transform="translate(678,682)"/>
<path d="M0 0 C0.66 0 1.32 0 2 0 C0.49087042 4.98012761 -2.55661849 8.24259942 -6 12 C-6.33 11.01 -6.66 10.02 -7 9 C-5.63671875 6.73828125 -5.63671875 6.73828125 -3.6875 4.3125 C-3.05199219 3.50425781 -2.41648437 2.69601562 -1.76171875 1.86328125 C-1.18035156 1.24839844 -0.59898437 0.63351562 0 0 Z " fill="#171616" transform="translate(705,366)"/>
<path d="M0 0 C0.66 0.33 1.32 0.66 2 1 C-0.64 4.63 -3.28 8.26 -6 12 C-6.33 11.01 -6.66 10.02 -7 9 C-5.56640625 6.73828125 -5.56640625 6.73828125 -3.5625 4.3125 C-2.90378906 3.50425781 -2.24507812 2.69601562 -1.56640625 1.86328125 C-1.04949219 1.24839844 -0.53257812 0.63351562 0 0 Z " fill="#141514" transform="translate(655,315)"/>
<path d="M0 0 C6.24675325 6.07792208 6.24675325 6.07792208 8 9 C7.67 9.99 7.34 10.98 7 12 C5.82455195 10.56967163 4.65989738 9.13046758 3.5 7.6875 C2.8503125 6.88699219 2.200625 6.08648438 1.53125 5.26171875 C0 3 0 3 0 0 Z " fill="#151414" transform="translate(644,637)"/>
<path d="M0 0 C0.66 0 1.32 0 2 0 C3.54296875 1.64453125 3.54296875 1.64453125 5.1875 3.8125 C5.73792969 4.52019531 6.28835938 5.22789062 6.85546875 5.95703125 C7.23316406 6.63121094 7.61085938 7.30539062 8 8 C7.67 8.99 7.34 9.98 7 11 C5.82750647 9.54634731 4.66216184 8.08692581 3.5 6.625 C2.52546875 5.40683594 2.52546875 5.40683594 1.53125 4.1640625 C0 2 0 2 0 0 Z " fill="#191919" transform="translate(632,622)"/>
<path d="M0 0 C0.66 0.33 1.32 0.66 2 1 C-0.64 4.3 -3.28 7.6 -6 11 C-6.33 10.01 -6.66 9.02 -7 8 C-5.56640625 5.95703125 -5.56640625 5.95703125 -3.5625 3.8125 C-2.90378906 3.09707031 -2.24507812 2.38164062 -1.56640625 1.64453125 C-1.04949219 1.10183594 -0.53257812 0.55914062 0 0 Z " fill="#121212" transform="translate(567,428)"/>
<path d="M0 0 C0.33 0.99 0.66 1.98 1 3 C-0.65234375 5.48046875 -0.65234375 5.48046875 -2.9375 8.1875 C-3.68902344 9.08855469 -4.44054687 9.98960937 -5.21484375 10.91796875 C-5.80394531 11.60503906 -6.39304687 12.29210937 -7 13 C-7.33 12.01 -7.66 11.02 -8 10 C-6.34765625 7.51953125 -6.34765625 7.51953125 -4.0625 4.8125 C-3.31097656 3.91144531 -2.55945313 3.01039063 -1.78515625 2.08203125 C-0.90150391 1.05142578 -0.90150391 1.05142578 0 0 Z " fill="#161616" transform="translate(672,408)"/>
<path d="M0 0 C0.66 0.33 1.32 0.66 2 1 C-0.31 3.97 -2.62 6.94 -5 10 C-5.33 9.01 -5.66 8.02 -6 7 C-4.78515625 5.17578125 -4.78515625 5.17578125 -3.0625 3.3125 C-2.49660156 2.68988281 -1.93070313 2.06726563 -1.34765625 1.42578125 C-0.90292969 0.95527344 -0.45820312 0.48476563 0 0 Z " fill="#181818" transform="translate(605,379)"/>
<path d="M0 0 C0.33 0.99 0.66 1.98 1 3 C-1.64 5.97 -4.28 8.94 -7 12 C-7 8.19654123 -5.86213669 7.22298985 -3.5 4.3125 C-2.8503125 3.50425781 -2.200625 2.69601562 -1.53125 1.86328125 C-1.0259375 1.24839844 -0.520625 0.63351562 0 0 Z " fill="#141314" transform="translate(716,353)"/>
<path d="M0 0 C0 0.66 0 1.32 0 2 C-2.99480917 2.8723412 -5.63575911 3.10829766 -8.75 3.0625 C-9.54921875 3.05347656 -10.3484375 3.04445313 -11.171875 3.03515625 C-11.77515625 3.02355469 -12.3784375 3.01195312 -13 3 C-8.49192825 0.69441653 -5.09714099 -0.14158725 0 0 Z " fill="#131313" transform="translate(406,741)"/>
<path d="M0 0 C0.66 0 1.32 0 2 0 C0.33248852 3.94139078 -2.22710649 6.7892812 -5 10 C-5.33 9.34 -5.66 8.68 -6 8 C-5.04956626 6.66102417 -4.08940853 5.32894573 -3.125 4 C-2.59132813 3.2575 -2.05765625 2.515 -1.5078125 1.75 C-1.01023437 1.1725 -0.51265625 0.595 0 0 Z " fill="#181818" transform="translate(614,367)"/>
<path d="M0 0 C0.33 0.66 0.66 1.32 1 2 C-1.31 4.97 -3.62 7.94 -6 11 C-6.33 10.01 -6.66 9.02 -7 8 C-5.56640625 5.95703125 -5.56640625 5.95703125 -3.5625 3.8125 C-2.90378906 3.09707031 -2.24507812 2.38164062 -1.56640625 1.64453125 C-1.04949219 1.10183594 -0.53257812 0.55914062 0 0 Z " fill="#181818" transform="translate(767,289)"/>
<path d="M0 0 C4.93928888 -0.3367697 5.78492722 -0.16130459 10 3 C6.7 3.33 3.4 3.66 0 4 C0 2.66666667 0 1.33333333 0 0 Z " fill="#353535" transform="translate(388,742)"/>
<path d="M0 0 C0.66 0 1.32 0 2 0 C1.39301257 4.12751449 -0.03810791 7.3321148 -2 11 C-2.95465783 8.83032311 -3.14401212 7.43671207 -2.3984375 5.17578125 C-1.64129615 3.4315257 -0.82390802 1.71372869 0 0 Z " fill="#161617" transform="translate(425,632)"/>
<path d="M0 0 C0.33 0.99 0.66 1.98 1 3 C-0.21484375 4.82421875 -0.21484375 4.82421875 -1.9375 6.6875 C-2.50339844 7.31011719 -3.06929687 7.93273437 -3.65234375 8.57421875 C-4.09707031 9.04472656 -4.54179688 9.51523437 -5 10 C-5.33 9.01 -5.66 8.02 -6 7 C-4.78515625 5.17578125 -4.78515625 5.17578125 -3.0625 3.3125 C-2.49660156 2.68988281 -1.93070313 2.06726563 -1.34765625 1.42578125 C-0.90292969 0.95527344 -0.45820312 0.48476563 0 0 Z " fill="#181717" transform="translate(724,343)"/>
<path d="M0 0 C0.33 0.99 0.66 1.98 1 3 C-0.9375 5.6875 -0.9375 5.6875 -3 8 C-3.99 7.67 -4.98 7.34 -6 7 C-4.02 4.69 -2.04 2.38 0 0 Z " fill="#201F20" transform="translate(647,325)"/>
<path d="M0 0 C0.33 0.99 0.66 1.98 1 3 C-0.21484375 4.82421875 -0.21484375 4.82421875 -1.9375 6.6875 C-2.50339844 7.31011719 -3.06929687 7.93273437 -3.65234375 8.57421875 C-4.09707031 9.04472656 -4.54179688 9.51523437 -5 10 C-5.66 9.67 -6.32 9.34 -7 9 C-4.69 6.03 -2.38 3.06 0 0 Z " fill="#141313" transform="translate(746,315)"/>
<path d="M0 0 C0.66 0 1.32 0 2 0 C0.68775452 3.93673644 -0.91910327 6.22719294 -4 9 C-4.66 8.67 -5.32 8.34 -6 8 C-5.04956626 6.66102417 -4.08940853 5.32894573 -3.125 4 C-2.59132813 3.2575 -2.05765625 2.515 -1.5078125 1.75 C-1.01023437 1.1725 -0.51265625 0.595 0 0 Z " fill="#151515" transform="translate(786,264)"/>
<path d="M0 0 C1.35432675 1.31200404 2.68733482 2.64631404 4 4 C4 4.33 4 4.66 4 5 C0.37 5 -3.26 5 -7 5 C-7 4.67 -7 4.34 -7 4 C-3.535 3.505 -3.535 3.505 0 3 C0 2.01 0 1.02 0 0 Z " fill="#303132" transform="translate(815,730)"/>
<path d="M0 0 C-1 3 -1 3 -2.8125 4.25 C-5.33943414 5.11637742 -6.52221994 4.88492145 -9 4 C-2.25 0 -2.25 0 0 0 Z " fill="#131313" transform="translate(439,728)"/>
<path d="M0 0 C2.64752004 2.57784846 4.94432065 4.91648098 7 8 C6.01 8 5.02 8 4 8 C0 3.77142857 0 3.77142857 0 0 Z " fill="#141314" transform="translate(621,607)"/>
<path d="M0 0 C2 3 2 3 1.625 5.6875 C1.41875 6.450625 1.2125 7.21375 1 8 C-1 5 -1 5 -1 3 C-2.65 3 -4.3 3 -6 3 C-6 2.67 -6 2.34 -6 2 C-4.02 2 -2.04 2 0 2 C0 1.34 0 0.68 0 0 Z " fill="#363535" transform="translate(296,594)"/>
<path d="M0 0 C0.33 0.99 0.66 1.98 1 3 C-1.3125 6.1875 -1.3125 6.1875 -4 9 C-4.66 9 -5.32 9 -6 9 C-4.47291037 5.56404834 -2.40072955 2.88087546 0 0 Z " fill="#141313" transform="translate(657,427)"/>
<path d="M0 0 C0.99 0.33 1.98 0.66 3 1 C0.03 4.96 0.03 4.96 -3 9 C-3.33 8.01 -3.66 7.02 -4 6 C-2.0625 2.8125 -2.0625 2.8125 0 0 Z " fill="#141414" transform="translate(662,305)"/>
<path d="M0 0 C0.99 0.33 1.98 0.66 3 1 C1.02 3.31 -0.96 5.62 -3 8 C-3.33 7.34 -3.66 6.68 -4 6 C-2.68 4.02 -1.36 2.04 0 0 Z " fill="#151515" transform="translate(669,296)"/>
<path d="M0 0 C0.66 0.33 1.32 0.66 2 1 C-0.97 4.96 -0.97 4.96 -4 9 C-4.33 8.01 -4.66 7.02 -5 6 C-3.59554165 3.7363436 -1.8032087 1.9791315 0 0 Z " fill="#121212" transform="translate(679,284)"/>
<path d="M0 0 C0.99 0.33 1.98 0.66 3 1 C0.525 4.465 0.525 4.465 -2 8 C-2.33 7.01 -2.66 6.02 -3 5 C-1.5625 2.3125 -1.5625 2.3125 0 0 Z " fill="#161515" transform="translate(573,419)"/>
<path d="M0 0 C4.75 0.75 4.75 0.75 7 3 C6.67 3.99 6.34 4.98 6 6 C3.97945196 4.35830472 1.97956942 2.69088222 0 1 C0 0.67 0 0.34 0 0 Z " fill="#202020" transform="translate(265,713)"/>
<path d="M0 0 C2.88437779 1.29299694 4.87219421 2.65941363 7 5 C6.67 5.66 6.34 6.32 6 7 C3.95880212 5.38405168 1.95927063 3.7143618 0 2 C0 1.34 0 0.68 0 0 Z " fill="#131212" transform="translate(313,652)"/>
<path d="M0 0 C0.66 0 1.32 0 2 0 C0.73058503 3.91402949 -0.51167694 5.79072873 -4 8 C-3.40312566 4.65750371 -2.26396123 2.53563658 0 0 Z " fill="#171616" transform="translate(752,307)"/>
<path d="M0 0 C1.32 0 2.64 0 4 0 C4 0.66 4 1.32 4 2 C5.98 2 7.96 2 10 2 C10 2.33 10 2.66 10 3 C6.7 3 3.4 3 0 3 C0 2.01 0 1.02 0 0 Z " fill="#181819" transform="translate(432,248)"/>
<path d="M0 0 C0.99 1.485 0.99 1.485 2 3 C1.34 3 0.68 3 0 3 C0 2.01 0 1.02 0 0 Z " fill="#414040" transform="translate(228,669)"/>
<path d="M0 0 C0 3 0 3 0 3 Z " fill="#403F3F" transform="translate(573,549)"/>
<path d="M0 0 C0.33 0.99 0.66 1.98 1 3 C0.34 2.67 -0.32 2.34 -1 2 C-0.67 1.34 -0.34 0.68 0 0 Z " fill="#413F3F" transform="translate(553,523)"/>
<path d="M0 0 C3 1 3 1 3 1 Z " fill="#3F3F3E" transform="translate(313,741)"/>
<path d="M0 0 C0.66 0 1.32 0 2 0 C1.67 0.66 1.34 1.32 1 2 C0.67 1.34 0.34 0.68 0 0 Z " fill="#414040" transform="translate(226,667)"/>
<path d="M0 0 C0.99 0.495 0.99 0.495 2 1 C1.01 1.495 1.01 1.495 0 2 C0 1.34 0 0.68 0 0 Z " fill="#414141" transform="translate(390,664)"/>
<path d="M0 0 C0.99 0.495 0.99 0.495 2 1 C1.01 1.495 1.01 1.495 0 2 C0 1.34 0 0.68 0 0 Z " fill="#424141" transform="translate(224,664)"/>
<path d="M0 0 C0.66 0 1.32 0 2 0 C1.67 0.66 1.34 1.32 1 2 C0.67 1.34 0.34 0.68 0 0 Z " fill="#404040" transform="translate(216,641)"/>
<path d="M0 0 C0.66 0 1.32 0 2 0 C1.67 0.66 1.34 1.32 1 2 C0.67 1.34 0.34 0.68 0 0 Z " fill="#3D3C3D" transform="translate(733,617)"/>
<path d="M0 0 C0.66 0.66 1.32 1.32 2 2 C1.34 2 0.68 2 0 2 C0 1.34 0 0.68 0 0 Z " fill="#403F3F" transform="translate(580,558)"/>
<path d="M0 0 C0.33 0.66 0.66 1.32 1 2 C0.34 1.67 -0.32 1.34 -1 1 C-0.67 0.67 -0.34 0.34 0 0 Z " fill="#413F3F" transform="translate(577,556)"/>
<path d="M0 0 C0.66 0.66 1.32 1.32 2 2 C1.34 2 0.68 2 0 2 C0 1.34 0 0.68 0 0 Z " fill="#40403F" transform="translate(555,525)"/>
<path d="M0 0 C0.66 0.66 1.32 1.32 2 2 C1.34 2 0.68 2 0 2 C0 1.34 0 0.68 0 0 Z " fill="#403F3F" transform="translate(547,515)"/>
<path d="M0 0 C0.99 0.495 0.99 0.495 2 1 C1.01 1.495 1.01 1.495 0 2 C0 1.34 0 0.68 0 0 Z " fill="#403F3F" transform="translate(544,512)"/>
<path d="M0 0 C2 1 2 1 2 1 Z " fill="#403F3D" transform="translate(341,747)"/>
<path d="" fill="#424141" transform="translate(0,0)"/>
<path d="" fill="#404142" transform="translate(0,0)"/>
<path d="M0 0 C2 1 2 1 2 1 Z " fill="#403F3F" transform="translate(608,595)"/>
<path d="M0 0 C2 1 2 1 2 1 Z " fill="#3E3E3E" transform="translate(716,593)"/>
<path d="M0 0 C2 1 2 1 2 1 Z " fill="#3D3D3C" transform="translate(604,590)"/>
<path d="" fill="#3F3E3E" transform="translate(0,0)"/>
<path d="" fill="#3C3D3C" transform="translate(0,0)"/>
<path d="" fill="#42413F" transform="translate(0,0)"/>
<path d="" fill="#42403E" transform="translate(0,0)"/>
<path d="" fill="#403F3E" transform="translate(0,0)"/>
<path d="" fill="#423F3F" transform="translate(0,0)"/>
<path d="" fill="#454545" transform="translate(0,0)"/>
<path d="" fill="#474443" transform="translate(0,0)"/>
<path d="" fill="#444344" transform="translate(0,0)"/>
<path d="" fill="#2C2C2B" transform="translate(0,0)"/>
<path d="" fill="#40403F" transform="translate(0,0)"/>
<path d="" fill="#41403F" transform="translate(0,0)"/>
<path d="" fill="#40403F" transform="translate(0,0)"/>
<path d="" fill="#41413F" transform="translate(0,0)"/>
<path d="" fill="#404140" transform="translate(0,0)"/>
<path d="" fill="#414140" transform="translate(0,0)"/>
<path d="" fill="#403D3D" transform="translate(0,0)"/>
<path d="" fill="#3F3E3E" transform="translate(0,0)"/>
<path d="" fill="#414140" transform="translate(0,0)"/>
<path d="" fill="#3F4040" transform="translate(0,0)"/>
<path d="" fill="#413F3F" transform="translate(0,0)"/>
<path d="" fill="#403E3E" transform="translate(0,0)"/>
<path d="" fill="#454240" transform="translate(0,0)"/>
<path d="" fill="#424141" transform="translate(0,0)"/>
<path d="" fill="#434140" transform="translate(0,0)"/>
<path d="" fill="#40403E" transform="translate(0,0)"/>
<path d="" fill="#434343" transform="translate(0,0)"/>
<path d="" fill="#41403F" transform="translate(0,0)"/>
<path d="" fill="#434440" transform="translate(0,0)"/>
<path d="" fill="#423F3E" transform="translate(0,0)"/>
<path d="" fill="#414240" transform="translate(0,0)"/>
<path d="" fill="#3E3E3B" transform="translate(0,0)"/>
<path d="" fill="#3F4140" transform="translate(0,0)"/>
<path d="" fill="#3E413D" transform="translate(0,0)"/>
<path d="" fill="#3F3F41" transform="translate(0,0)"/>
<path d="" fill="#3E4040" transform="translate(0,0)"/>
<path d="" fill="#413F3F" transform="translate(0,0)"/>
<path d="" fill="#424142" transform="translate(0,0)"/>
<path d="" fill="#3E3C3B" transform="translate(0,0)"/>
<path d="" fill="#40413F" transform="translate(0,0)"/>
<path d="" fill="#3F3F3E" transform="translate(0,0)"/>
<path d="" fill="#423F40" transform="translate(0,0)"/>
<path d="" fill="#414041" transform="translate(0,0)"/>
<path d="" fill="#414140" transform="translate(0,0)"/>
<path d="" fill="#414040" transform="translate(0,0)"/>
<path d="" fill="#414040" transform="translate(0,0)"/>
<path d="" fill="#413F3F" transform="translate(0,0)"/>
<path d="" fill="#42403F" transform="translate(0,0)"/>
<path d="" fill="#404040" transform="translate(0,0)"/>
<path d="" fill="#3F3F3F" transform="translate(0,0)"/>
<path d="" fill="#424140" transform="translate(0,0)"/>
<path d="" fill="#41413F" transform="translate(0,0)"/>
<path d="" fill="#3D3C3E" transform="translate(0,0)"/>
<path d="" fill="#3E3F3E" transform="translate(0,0)"/>
<path d="" fill="#413F40" transform="translate(0,0)"/>
<path d="" fill="#414340" transform="translate(0,0)"/>
<path d="" fill="#414340" transform="translate(0,0)"/>
<path d="" fill="#424141" transform="translate(0,0)"/>
<path d="" fill="#413E3E" transform="translate(0,0)"/>
<path d="" fill="#3F3E3F" transform="translate(0,0)"/>
<path d="" fill="#413F3F" transform="translate(0,0)"/>
<path d="" fill="#3F3E3E" transform="translate(0,0)"/>
<path d="" fill="#444140" transform="translate(0,0)"/>
<path d="" fill="#414240" transform="translate(0,0)"/>
<path d="" fill="#3F403C" transform="translate(0,0)"/>
<path d="" fill="#3F3E3E" transform="translate(0,0)"/>
<path d="" fill="#434241" transform="translate(0,0)"/>
<path d="" fill="#403F40" transform="translate(0,0)"/>
<path d="" fill="#3D3A3B" transform="translate(0,0)"/>
<path d="" fill="#444242" transform="translate(0,0)"/>
<path d="" fill="#3F403F" transform="translate(0,0)"/>
<path d="" fill="#414042" transform="translate(0,0)"/>
<path d="" fill="#404241" transform="translate(0,0)"/>
<path d="" fill="#424040" transform="translate(0,0)"/>
<path d="" fill="#3F3F3F" transform="translate(0,0)"/>
<path d="" fill="#434443" transform="translate(0,0)"/>
<path d="" fill="#444341" transform="translate(0,0)"/>
<path d="" fill="#3D3F3C" transform="translate(0,0)"/>
<path d="" fill="#414042" transform="translate(0,0)"/>
<path d="" fill="#414040" transform="translate(0,0)"/>
<path d="" fill="#413F3D" transform="translate(0,0)"/>
<path d="" fill="#403E40" transform="translate(0,0)"/>
<path d="" fill="#40403E" transform="translate(0,0)"/>
<path d="" fill="#413F40" transform="translate(0,0)"/>
<path d="" fill="#403F42" transform="translate(0,0)"/>
<path d="" fill="#423D40" transform="translate(0,0)"/>
<path d="" fill="#424142" transform="translate(0,0)"/>
<path d="" fill="#434242" transform="translate(0,0)"/>
<path d="" fill="#414040" transform="translate(0,0)"/>
<path d="" fill="#414041" transform="translate(0,0)"/>
<path d="" fill="#454342" transform="translate(0,0)"/>
<path d="" fill="#3F3F3D" transform="translate(0,0)"/>
<path d="" fill="#3F3E3E" transform="translate(0,0)"/>
<path d="" fill="#414040" transform="translate(0,0)"/>
<path d="" fill="#42403F" transform="translate(0,0)"/>
<path d="" fill="#42413F" transform="translate(0,0)"/>
<path d="" fill="#3F3D3F" transform="translate(0,0)"/>
<path d="" fill="#434141" transform="translate(0,0)"/>
<path d="" fill="#434040" transform="translate(0,0)"/>
<path d="" fill="#414242" transform="translate(0,0)"/>
<path d="" fill="#403E41" transform="translate(0,0)"/>
<path d="" fill="#403F3F" transform="translate(0,0)"/>
<path d="" fill="#404243" transform="translate(0,0)"/>
<path d="" fill="#424443" transform="translate(0,0)"/>
<path d="" fill="#3F3E3D" transform="translate(0,0)"/>
<path d="" fill="#403E3F" transform="translate(0,0)"/>
<path d="" fill="#403E3F" transform="translate(0,0)"/>
<path d="" fill="#454445" transform="translate(0,0)"/>
<path d="" fill="#444545" transform="translate(0,0)"/>
<path d="" fill="#434141" transform="translate(0,0)"/>
<path d="" fill="#3E3B3B" transform="translate(0,0)"/>
<path d="" fill="#3F3E3F" transform="translate(0,0)"/>
<path d="" fill="#403D3E" transform="translate(0,0)"/>
<path d="" fill="#413D3E" transform="translate(0,0)"/>
<path d="" fill="#3E3C3D" transform="translate(0,0)"/>
<path d="" fill="#413F40" transform="translate(0,0)"/>
<path d="" fill="#403F3E" transform="translate(0,0)"/>
<path d="" fill="#454441" transform="translate(0,0)"/>
<path d="" fill="#403E3F" transform="translate(0,0)"/>
<path d="" fill="#403E3E" transform="translate(0,0)"/>
<path d="" fill="#403F3F" transform="translate(0,0)"/>
<path d="" fill="#41413E" transform="translate(0,0)"/>
<path d="" fill="#413E41" transform="translate(0,0)"/>
<path d="" fill="#403E3F" transform="translate(0,0)"/>
<path d="" fill="#403E40" transform="translate(0,0)"/>
<path d="" fill="#424142" transform="translate(0,0)"/>
<path d="" fill="#403E3C" transform="translate(0,0)"/>
<path d="" fill="#3F3E3D" transform="translate(0,0)"/>
<path d="" fill="#413F3E" transform="translate(0,0)"/>
<path d="" fill="#403E3E" transform="translate(0,0)"/>
<path d="" fill="#423F40" transform="translate(0,0)"/>
<path d="" fill="#3F403E" transform="translate(0,0)"/>
<path d="" fill="#3E3C3D" transform="translate(0,0)"/>
<path d="" fill="#403E3F" transform="translate(0,0)"/>
<path d="" fill="#40403F" transform="translate(0,0)"/>
<path d="" fill="#3D3D3C" transform="translate(0,0)"/>
<path d="" fill="#3E3D3D" transform="translate(0,0)"/>
<path d="" fill="#413F3F" transform="translate(0,0)"/>
<path d="" fill="#3D383C" transform="translate(0,0)"/>
<path d="" fill="#3F3C3D" transform="translate(0,0)"/>
<path d="" fill="#3F3C3D" transform="translate(0,0)"/>
<path d="" fill="#403F3F" transform="translate(0,0)"/>
<path d="" fill="#3E3E3D" transform="translate(0,0)"/>
<path d="" fill="#3F3F3D" transform="translate(0,0)"/>
<path d="" fill="#3F3B3D" transform="translate(0,0)"/>
<path d="" fill="#3E3F3C" transform="translate(0,0)"/>
<path d="" fill="#3D3B3B" transform="translate(0,0)"/>
<path d="" fill="#403E3F" transform="translate(0,0)"/>
<path d="" fill="#3E3D3D" transform="translate(0,0)"/>
<path d="" fill="#3F3E3D" transform="translate(0,0)"/>
<path d="" fill="#3C3B3B" transform="translate(0,0)"/>
<path d="" fill="#3F3C3F" transform="translate(0,0)"/>
<path d="" fill="#444443" transform="translate(0,0)"/>
<path d="" fill="#3F3E3E" transform="translate(0,0)"/>
<path d="" fill="#3E3D3F" transform="translate(0,0)"/>
<path d="" fill="#3E3E3F" transform="translate(0,0)"/>
<path d="" fill="#414040" transform="translate(0,0)"/>
<path d="" fill="#3D3D3E" transform="translate(0,0)"/>
<path d="" fill="#3F3D3D" transform="translate(0,0)"/>
<path d="" fill="#3F3D40" transform="translate(0,0)"/>
<path d="" fill="#42403F" transform="translate(0,0)"/>
<path d="" fill="#3F3E3D" transform="translate(0,0)"/>
<path d="" fill="#404140" transform="translate(0,0)"/>
<path d="" fill="#424040" transform="translate(0,0)"/>
<path d="" fill="#403F40" transform="translate(0,0)"/>
<path d="" fill="#434343" transform="translate(0,0)"/>
<path d="" fill="#42413F" transform="translate(0,0)"/>
<path d="" fill="#413E3E" transform="translate(0,0)"/>
<path d="" fill="#424141" transform="translate(0,0)"/>
<path d="" fill="#413F3E" transform="translate(0,0)"/>
<path d="" fill="#40413F" transform="translate(0,0)"/>
<path d="" fill="#3D3D3C" transform="translate(0,0)"/>
<path d="" fill="#41413F" transform="translate(0,0)"/>
<path d="" fill="#41423F" transform="translate(0,0)"/>
<path d="" fill="#403F3F" transform="translate(0,0)"/>
<path d="" fill="#434243" transform="translate(0,0)"/>
<path d="" fill="#424141" transform="translate(0,0)"/>
<path d="" fill="#434140" transform="translate(0,0)"/>
<path d="" fill="#3E3F41" transform="translate(0,0)"/>
<path d="" fill="#424240" transform="translate(0,0)"/>
<path d="" fill="#41423F" transform="translate(0,0)"/>
<path d="" fill="#403E3F" transform="translate(0,0)"/>
<path d="" fill="#434141" transform="translate(0,0)"/>
<path d="" fill="#404141" transform="translate(0,0)"/>
<path d="" fill="#404140" transform="translate(0,0)"/>
<path d="" fill="#424340" transform="translate(0,0)"/>
<path d="" fill="#3F4041" transform="translate(0,0)"/>
<path d="" fill="#434342" transform="translate(0,0)"/>
<path d="" fill="#433F40" transform="translate(0,0)"/>
<path d="" fill="#3F4042" transform="translate(0,0)"/>
<path d="" fill="#404041" transform="translate(0,0)"/>
<path d="" fill="#3F3D40" transform="translate(0,0)"/>
<path d="" fill="#434040" transform="translate(0,0)"/>
<path d="" fill="#434342" transform="translate(0,0)"/>
<path d="" fill="#403F3F" transform="translate(0,0)"/>
<path d="" fill="#403E3F" transform="translate(0,0)"/>
<path d="" fill="#414241" transform="translate(0,0)"/>
<path d="" fill="#404243" transform="translate(0,0)"/>
<path d="" fill="#3D3D3E" transform="translate(0,0)"/>
<path d="" fill="#403E40" transform="translate(0,0)"/>
<path d="" fill="#424040" transform="translate(0,0)"/>
<path d="" fill="#424241" transform="translate(0,0)"/>
<path d="" fill="#414040" transform="translate(0,0)"/>
<path d="" fill="#424241" transform="translate(0,0)"/>
<path d="" fill="#424144" transform="translate(0,0)"/>
<path d="" fill="#444441" transform="translate(0,0)"/>
<path d="" fill="#444141" transform="translate(0,0)"/>
<path d="" fill="#454542" transform="translate(0,0)"/>
<path d="" fill="#42403F" transform="translate(0,0)"/>
<path d="" fill="#413E40" transform="translate(0,0)"/>
<path d="" fill="#434241" transform="translate(0,0)"/>
<path d="" fill="#423F40" transform="translate(0,0)"/>
<path d="" fill="#3F3C3D" transform="translate(0,0)"/>
<path d="" fill="#434241" transform="translate(0,0)"/>
<path d="" fill="#434342" transform="translate(0,0)"/>
<path d="" fill="#414240" transform="translate(0,0)"/>
<path d="" fill="#444242" transform="translate(0,0)"/>
<path d="" fill="#444342" transform="translate(0,0)"/>
<path d="" fill="#454142" transform="translate(0,0)"/>
<path d="" fill="#434645" transform="translate(0,0)"/>
<path d="" fill="#3D3C3C" transform="translate(0,0)"/>
<path d="" fill="#444342" transform="translate(0,0)"/>
<path d="" fill="#484748" transform="translate(0,0)"/>
<path d="" fill="#3C3C3C" transform="translate(0,0)"/>
</svg>
